<svg xmlns="http://www.w3.org/2000/svg" viewBox="0 0 11.587 12.212" width="19.311" height="20.353" style="fill:none">
  <path style="color:#000;font-style:normal;font-variant:normal;font-weight:400;font-stretch:normal;font-size:medium;line-height:normal;font-family:sans-serif;font-variant-ligatures:normal;font-variant-position:normal;font-variant-caps:normal;font-variant-numeric:normal;font-variant-alternates:normal;font-feature-settings:normal;text-indent:0;text-align:start;text-decoration:none;text-decoration-line:none;text-decoration-style:solid;text-decoration-color:#000;letter-spacing:normal;word-spacing:normal;text-transform:none;writing-mode:lr-tb;direction:ltr;text-orientation:mixed;dominant-baseline:auto;baseline-shift:baseline;text-anchor:start;white-space:normal;shape-padding:0;clip-rule:nonzero;display:inline;overflow:visible;visibility:visible;opacity:1;isolation:auto;mix-blend-mode:normal;color-interpolation:sRGB;color-interpolation-filters:linearRGB;solid-color:#000;solid-opacity:1;vector-effect:none;fill:#000;fill-opacity:1;fill-rule:nonzero;stroke:none;stroke-width:.60000008;stroke-linecap:butt;stroke-linejoin:round;stroke-miterlimit:4;stroke-dasharray:none;stroke-dashoffset:0;stroke-opacity:1;color-rendering:auto;image-rendering:auto;shape-rendering:auto;text-rendering:auto;enable-background:accumulate" d="M4.409.06C3.27.06 2.242.192 1.472.417 1.087.53.767.663.521.833c-.247.17-.448.407-.448.708l-.013 9.13c0 .196.091.373.218.51s.29.247.486.346c.392.198.92.353 1.564.462 1.288.217 2.848.217 4.136 0 .645-.11 1.171-.264 1.562-.462.196-.1.36-.209.487-.346a.762.762 0 0 0 .219-.51l.001-1.107c1.595-.143 2.802-1.71 2.794-3.558-.009-1.83-1.21-3.372-2.783-3.519v-.946c0-.301-.198-.537-.444-.708-.247-.17-.566-.303-.95-.416C6.58.192 5.546.06 4.408.06Zm0 .6c1.09 0 2.08.132 2.77.334.346.101.617.222.78.334.162.112.187.19.187.213 0 .024-.025.1-.188.212-.162.112-.433.232-.779.333-.69.202-1.68.334-2.77.334-1.091 0-2.078-.132-2.77-.334-.345-.1-.616-.22-.779-.333-.162-.112-.187-.188-.187-.212 0-.024.025-.101.187-.213.163-.112.434-.233.78-.334C2.33.792 3.318.66 4.409.66ZM.626 2.318c.131.1.546.266.846.344.777.2 1.798.357 2.937.357 1.138 0 2.17-.136 2.94-.357.343-.099.7-.251.83-.344l-.047 8.352c0 .014-.002.042-.059.103a1.164 1.164 0 0 1-.316.22c-.306.154-.788.302-1.392.404a12.744 12.744 0 0 1-3.938 0c-.604-.102-1.085-.25-1.39-.405a1.164 1.164 0 0 1-.317-.219c-.057-.06-.061-.089-.061-.103Zm8.116.784c1.198.15 2.175 1.357 2.182 2.905.008 1.564-.977 2.796-2.19 2.943z"/>
</svg>
