<?xml version="1.0" encoding="UTF-8" standalone="no"?>
<!-- Created with Inkscape (http://www.inkscape.org/) -->

<svg
   xmlns:dc="http://purl.org/dc/elements/1.1/"
   xmlns:cc="http://creativecommons.org/ns#"
   xmlns:rdf="http://www.w3.org/1999/02/22-rdf-syntax-ns#"
   xmlns:svg="http://www.w3.org/2000/svg"
   xmlns="http://www.w3.org/2000/svg"
   xmlns:sodipodi="http://sodipodi.sourceforge.net/DTD/sodipodi-0.dtd"
   xmlns:inkscape="http://www.inkscape.org/namespaces/inkscape"
   width="774.92218"
   height="604.45087"
   viewBox="0 0 205.03149 159.92753"
   version="1.1"
   id="svg8"
   inkscape:export-filename="/home/tuukkala/Documents/koulu/webpalvelinohjelmointi/ratebeer/app/assets/images/ratebeer.png"
   inkscape:export-xdpi="96"
   inkscape:export-ydpi="96"
   inkscape:version="0.92.5 (2060ec1f9f, 2020-04-08)"
   sodipodi:docname="ratebeer.svg">
  <defs
     id="defs2" />
  <sodipodi:namedview
     id="base"
     pagecolor="#ffffff"
     bordercolor="#666666"
     borderopacity="1.0"
     inkscape:pageopacity="0.0"
     inkscape:pageshadow="2"
     inkscape:zoom="0.7"
     inkscape:cx="237.61812"
     inkscape:cy="395.62061"
     inkscape:document-units="mm"
     inkscape:current-layer="layer1"
     showgrid="false"
     units="px"
     fit-margin-top="100"
     fit-margin-left="100"
     fit-margin-right="100"
     fit-margin-bottom="100"
     inkscape:window-width="2560"
     inkscape:window-height="1383"
     inkscape:window-x="0"
     inkscape:window-y="27"
     inkscape:window-maximized="1" />
  <metadata
     id="metadata5">
    <rdf:RDF>
      <cc:Work
         rdf:about="">
        <dc:format>image/svg+xml</dc:format>
        <dc:type
           rdf:resource="http://purl.org/dc/dcmitype/StillImage" />
        <dc:title></dc:title>
      </cc:Work>
    </rdf:RDF>
  </metadata>
  <g
     inkscape:label="Layer 1"
     inkscape:groupmode="layer"
     id="layer1"
     transform="translate(-69.134621,-136.40454)">
    <g
       style="fill:#1a1d21;fill-opacity:1;stroke:none;stroke-opacity:1"
       id="g884"
       transform="matrix(4.5744946,0,0,4.5744946,90.350584,163.20989)">
      <path
         id="path873"
         d="M 11.5,0.5 H 12 A 0.5,0.5 0 0 0 11.5,0 Z m -7,0 0.354,-0.354 a 0.5,0.5 0 0 0 -0.708,0 z M 10,1 h 1.5 V 0 H 10 Z m 1,-0.5 v 6 h 1 v -6 z M 10,7 h 3 V 6 h -3 z m 1.578,1 H 11 v 1 h 0.578 z m 1.396,3.658 0.393,-1.176 -0.95,-0.317 -0.391,1.177 z M 11,12 h 1.5 V 11 H 11 Z m 0.974,2.658 1,-3 -0.948,-0.316 -1,3 z M 9,10 a 2,2 0 0 0 2,2 v -1 a 1,1 0 0 1 -1,-1 z m 2,-2 a 2,2 0 0 0 -2,2 h 1 a 1,1 0 0 1 1,-1 z m 0.578,1 a 0.885,0.885 0 0 1 0.84,1.165 l 0.949,0.317 A 1.885,1.885 0 0 0 11.578,8 Z m -7.432,-8.854 -3,3 0.708,0.708 3,-3 z m 0,0.708 3,3 0.708,-0.708 -3,-3 z M 4,0.5 V 15 H 5 V 0.5 Z"
         inkscape:connector-curvature="0"
         style="fill:#1a1d21;fill-opacity:1;stroke:none;stroke-opacity:1" />
    </g>
    <g
       style="fill:#1a1d21;fill-opacity:1;stroke:none"
       id="g968"
       transform="matrix(5.7317892,0,0,5.7317892,181.63722,162.51897)">
      <path
         id="path957"
         d="M 4.409,0.06 C 3.27,0.06 2.242,0.192 1.472,0.417 1.087,0.53 0.767,0.663 0.521,0.833 0.274,1.003 0.073,1.24 0.073,1.541 l -0.013,9.13 c 0,0.196 0.091,0.373 0.218,0.51 0.127,0.137 0.29,0.247 0.486,0.346 0.392,0.198 0.92,0.353 1.564,0.462 1.288,0.217 2.848,0.217 4.136,0 0.645,-0.11 1.171,-0.264 1.562,-0.462 0.196,-0.1 0.36,-0.209 0.487,-0.346 a 0.762,0.762 0 0 0 0.219,-0.51 L 8.733,9.564 C 10.328,9.421 11.535,7.854 11.527,6.006 11.518,4.176 10.317,2.634 8.744,2.487 V 1.541 C 8.744,1.24 8.546,1.004 8.3,0.833 8.053,0.663 7.734,0.53 7.35,0.417 6.58,0.192 5.546,0.06 4.408,0.06 Z m 0,0.6 c 1.09,0 2.08,0.132 2.77,0.334 0.346,0.101 0.617,0.222 0.78,0.334 0.162,0.112 0.187,0.19 0.187,0.213 0,0.024 -0.025,0.1 -0.188,0.212 C 7.796,1.865 7.525,1.985 7.179,2.086 6.489,2.288 5.499,2.42 4.409,2.42 3.318,2.42 2.331,2.288 1.639,2.086 1.294,1.986 1.023,1.866 0.86,1.753 0.698,1.641 0.673,1.565 0.673,1.541 0.673,1.517 0.698,1.44 0.86,1.328 1.023,1.216 1.294,1.095 1.64,0.994 2.33,0.792 3.318,0.66 4.409,0.66 Z M 0.626,2.318 c 0.131,0.1 0.546,0.266 0.846,0.344 0.777,0.2 1.798,0.357 2.937,0.357 1.138,0 2.17,-0.136 2.94,-0.357 0.343,-0.099 0.7,-0.251 0.83,-0.344 L 8.132,10.67 c 0,0.014 -0.002,0.042 -0.059,0.103 a 1.164,1.164 0 0 1 -0.316,0.22 c -0.306,0.154 -0.788,0.302 -1.392,0.404 a 12.744,12.744 0 0 1 -3.938,0 C 1.823,11.295 1.342,11.147 1.037,10.992 A 1.164,1.164 0 0 1 0.72,10.773 C 0.663,10.713 0.659,10.684 0.659,10.67 Z m 8.116,0.784 c 1.198,0.15 2.175,1.357 2.182,2.905 0.008,1.564 -0.977,2.796 -2.19,2.943 z"
         style="color:#000000;font-style:normal;font-variant:normal;font-weight:400;font-stretch:normal;font-size:medium;line-height:normal;font-family:sans-serif;font-variant-ligatures:normal;font-variant-position:normal;font-variant-caps:normal;font-variant-numeric:normal;font-variant-alternates:normal;font-feature-settings:normal;text-indent:0;text-align:start;text-decoration:none;text-decoration-line:none;text-decoration-style:solid;text-decoration-color:#000000;letter-spacing:normal;word-spacing:normal;text-transform:none;writing-mode:lr-tb;direction:ltr;text-orientation:mixed;dominant-baseline:auto;baseline-shift:baseline;text-anchor:start;white-space:normal;shape-padding:0;clip-rule:nonzero;display:inline;overflow:visible;visibility:visible;opacity:1;isolation:auto;mix-blend-mode:normal;color-interpolation:sRGB;color-interpolation-filters:linearRGB;solid-color:#000000;solid-opacity:1;vector-effect:none;fill:#1a1d21;fill-opacity:1;fill-rule:nonzero;stroke:none;stroke-width:0.60000008;stroke-linecap:butt;stroke-linejoin:round;stroke-miterlimit:4;stroke-dasharray:none;stroke-dashoffset:0;stroke-opacity:1;color-rendering:auto;image-rendering:auto;shape-rendering:auto;text-rendering:auto;enable-background:accumulate"
         inkscape:connector-curvature="0" />
    </g>
    <flowRoot
       xml:space="preserve"
       id="flowRoot1037"
       style="font-style:normal;font-weight:normal;font-size:40px;line-height:1.25;font-family:sans-serif;letter-spacing:0px;word-spacing:0px;fill:#000000;fill-opacity:1;stroke:none"
       transform="matrix(0.26458333,0,0,0.26458333,0,109.67487)"><flowRegion
         id="flowRegion1039"
         style="stroke:none"><rect
           id="rect1041"
           width="634.28577"
           height="237.14287"
           x="370"
           y="500"
           style="stroke:none" /></flowRegion><flowPara
         id="flowPara1043"
         style="font-style:normal;font-variant:normal;font-weight:500;font-stretch:normal;font-size:118.66667175px;font-family:'Fira Code';-inkscape-font-specification:'Fira Code Medium';letter-spacing:-6.76000023px;word-spacing:0.34px;fill:#1a1d21;fill-opacity:1;stroke:none">ratebeer</flowPara></flowRoot>  </g>
</svg>
